<?xml version="1.0" encoding="utf-8"?>
<!-- Generator: Adobe Illustrator 26.1.0, SVG Export Plug-In . SVG Version: 6.00 Build 0)  -->
<svg version="1.1" id="圖層_1" xmlns="http://www.w3.org/2000/svg" xmlns:xlink="http://www.w3.org/1999/xlink" x="0px" y="0px"
	 viewBox="0 0 28.4 28.4" style="enable-background:new 0 0 28.4 28.4;" xml:space="preserve">
<style type="text/css">
	.st0{fill-rule:evenodd;clip-rule:evenodd;}
</style>
<path class="st0" d="M26.2,26.5c-0.1,0-0.3,0-0.4-0.2c-0.4-0.3-0.7-0.7-1.1-1.1c-0.1-0.1-0.3-0.3-0.4-0.4l-1-1
	c-1.4-1.4-2.8-2.8-4.2-4.3c-0.2-0.2-0.4-0.4-0.8-0.4c-0.3,0-0.5,0.1-0.7,0.3c-1.8,1.2-3.8,1.9-5.9,1.9c-4.3,0-8-2.7-9.4-6.9
	C1.3,12,1.5,9.3,2.8,6.8c1.3-2.4,3.5-4.2,6.1-5c0.9-0.3,1.8-0.4,2.7-0.4c5.1,0,9.3,3.7,9.9,8.9c0.3,2.4-0.3,4.7-1.7,6.8
	c-0.1,0.1-0.7,1-0.7,1l0.4,0.5c0.1,0.1,0.2,0.2,0.3,0.3l1.7,1.7c1.5,1.5,3.2,3.2,4.7,4.7c0.2,0.2,0.4,0.5,0.4,0.7
	C26.7,26.4,26.4,26.5,26.2,26.5z M11.6,2.6c-2.4,0-4.6,1-6.2,2.6c-1.7,1.7-2.5,3.9-2.5,6.2c0,4.9,3.9,8.8,8.8,8.8h0.1
	c2.4,0,4.7-1,6.3-2.7c1.6-1.7,2.5-3.8,2.5-6.1C20.4,6.5,16.5,2.6,11.6,2.6L11.6,2.6z"/>
</svg>
