<?xml version="1.0" encoding="utf-8"?>
<!-- Generator: Adobe Illustrator 26.0.3, SVG Export Plug-In . SVG Version: 6.00 Build 0)  -->
<svg version="1.1" id="圖層_1" xmlns="http://www.w3.org/2000/svg" xmlns:xlink="http://www.w3.org/1999/xlink" x="0px" y="0px"
	 viewBox="0 0 500 280" style="enable-background:new 0 0 500 280;" xml:space="preserve">
<style type="text/css">
	.st0{fill:#008DCF;}
	.st1{fill:#E23C1B;}
	.st2{fill:#EC6616;}
	.st3{fill:#F6A808;}
	.st4{fill:#9DC63B;}
</style>
<g>
	<path class="st0" d="M96.2,259.7h73c0,0,60.7-59.3,163-34.8C332.2,224.9,227.8,168.3,96.2,259.7z"/>
	<path class="st1" d="M257.8,0.5c0,0,53.2,118.7,242.2,173.3H372.4c0,0,0,51.8,108.5,105.7c0,0-130.3-22.5-166.4-123.5h61.4
		C375.9,156,270.8,87.8,257.8,0.5z"/>
	<path class="st2" d="M199.9,70.8c0,0,16.4,16.4,23.2,20.5c0,0,29.3-28,34.1-58.7C257.2,32.6,231.2,74.9,199.9,70.8z"/>
	<path class="st3" d="M176.7,60.5c0,0,47.1,66.2,103.7,79.1H221C221,139.7,182.8,118.5,176.7,60.5z"/>
	<path class="st4" d="M167.1,51.7c0,0-36.2,91.4-167.1,142.6l111.2-16.4c0,0-6.8,49.8-83.2,81.9c0,0,101-8.2,129.6-88.7l109.8-15
		H114.6C114.6,156,163,110.3,167.1,51.7z"/>
</g>
</svg>
